# xmcd
#
# Track frame offsets:
#	150
#	36517
#	69811
#	99266
#	133252
#	164695
#	196901
#	228368
#	261069
#	306535
#
# Disc length: 4475 seconds
# Revision: 0
# Processed by: cddbd v1.5.2PL0 Copyright (c) Steve Scherf et al.
# Submitted via: dBpowerAMP V12.0
#
DISCID=8b11790a
DTITLE=Various Artist - The Many Faces of Joey Negro
DYEAR=2006
DGENRE=House
TTITLE0=Akabu - Phuture Bound (Ame Mix)
TTITLE1=The Sunburst Band - Fly Away (Audiowhores Mix)
TTITLE2=Erro - Change for Me (Martin Solveig Dub)
TTITLE3=Dave Lee - You're Not Alone (Mark Knight Toolroom Mix)
TTITLE4=Raven Maize - Forever Together (Basement Jaxx Mix)
TTITLE5=Raw Essence - Do You Love What You Feel (Cleptomaniacs Mix)
TTITLE6=Jakatta - Shimmering Stars (Rulers of the Deep Mix)
TTITLE7=The Sunburst Band - Twinkle (Idjut Boys Main Pass)
TTITLE8=Blackbyrds - Mysterious Vibes (Masters at Work Mix)
TTITLE9=The Sunburst Band - U Make Me So Hot (Yamwho Mix)
EXTD=
EXTT0=
EXTT1=
EXTT2=
EXTT3=
EXTT4=
EXTT5=
EXTT6=
EXTT7=
EXTT8=
EXTT9=
PLAYORDER=
